# AST/ASF file generated using VICON BodyLanguage
# -----------------------------------------------
:version 1.10
:name VICON
:units
  mass 1.0
  length 0.45
  angle deg
:documentation
   .ast/.asf automatically generated from VICON data using
   VICON BodyBuilder and BodyLanguage model FoxedUp or BRILLIANT.MOD
:root
   order TX TY TZ RX RY RZ
   axis XYZ
   position 0 0 0  
   orientation 0 0 0 
:bonedata
  begin
     id 1 
     name lhipjoint
     direction 0.577973 -0.728611 0.367523 
     length 2.48544 
     axis 0 0 0  XYZ
  end
  begin
     id 2 
     name lfemur
     direction 0.34202 -0.939693 0  
     length 7.1921  
     axis 0 0 20  XYZ
    dof rx ry rz
    limits (-160.0 20.0)
           (-70.0 70.0)
           (-60.0 70.0)
  end
  begin
     id 3 
     name ltibia
     direction 0.34202 -0.939693 0   
     length 7.71059   
     axis 0 0 20   XYZ
    dof rx
    limits (-10.0 170.0)
  end
  begin
     id 4 
     name lfoot
     direction 0.089538 -0.246004 0.965124   
     length 2.19909   
     axis -90 7.62852e-016 20   XYZ
    dof rx rz
    limits (-45.0 90.0)
           (-70.0 20.0)
  end
  begin
     id 5 
     name ltoes
     direction 1.53544e-011 -4.21829e-011 1   
     length 1.10116   
     axis -90 7.62852e-016 20   XYZ
    dof rx
    limits (-90.0 20.0)
  end
  begin
     id 6 
     name rhipjoint
     direction -0.554414 -0.743062 0.374812   
     length 2.4371  
     axis 0 0 0  XYZ 
  end
  begin
     id 7 
     name rfemur
     direction -0.34202 -0.939693 0   
     length 7.47254   
     axis 0 0 -20   XYZ
    dof rx ry rz
    limits (-160.0 20.0)
           (-70.0 70.0)
           (-70.0 60.0)
  end
  begin
     id 8 
     name rtibia
     direction -0.34202 -0.939693 0   
     length 7.65855   
     axis 0 0 -20   XYZ
    dof rx
    limits (-10.0 170.0)
 end
 begin
     id 9 
     name rfoot
     direction -0.133779 -0.367555 0.92033   
     length 2.43006  
     axis -90 -7.62852e-016 -20   XYZ
    dof rx rz
    limits (-45.0 90.0)
           (-20.0 70.0)
  end
  begin
     id 10 
     name rtoes
     direction -1.53563e-011 -4.21889e-011 1   
     length 1.19625   
     axis -90 -7.62852e-016 -20   XYZ
    dof rx
    limits (-90.0 20.0)
  end
  begin
     id 11 
     name lowerback
     direction 0.0249066 0.998043 -0.0573585   
     length 2.08485   
     axis 0 0 0   XYZ
    dof rx ry rz
    limits (-20.0 45.0)
           (-30.0 30.0)
           (-30.0 30.0)
  end
  begin
     id 12 
     name upperback
     direction 0.0237884 0.999673 0.00943178   
     length 2.08515   
     axis 0 0 0   XYZ
    dof rx ry rz
    limits (-20.0 45.0)
           (-30.0 30.0)
           (-30.0 30.0)
  end
  begin
     id 13 
     name thorax
     direction 0.0106671 0.999301 0.0358174   
     length 2.09037   
     axis 0 0 0   XYZ
    dof rx ry rz
    limits (-20.0 45.0)
           (-30.0 30.0)
           (-30.0 30.0)
  end
  begin
     id 14 
     name lowerneck
     direction -0.0580016 0.987052 0.149546   
     length 1.84454   
     axis 0 0 0   XYZ
    dof rx ry rz
    limits (-20.0 45.0)
           (-30.0 30.0)
           (-30.0 30.0)
  end
  begin
     id 15 
     name upperneck
     direction 0.079456 0.981963 -0.171567   
     length 1.88141   
     axis 0 0 0   XYZ
    dof rx ry rz
    limits (-20.0 45.0)
           (-30.0 30.0)
           (-30.0 30.0)
  end
  begin
     id 16
     name head
     direction 0.0262167 0.9967 -0.0768276  
     length 1.89541  
     axis 0 0 0   XYZ
    dof rx ry rz
    limits (-20.0 45.0)
           (-30.0 30.0)
           (-30.0 30.0)
  end
  begin
     id 17 
     name lclavicle
     direction 0.946135 0.322134 -0.0325326  
     length 3.949  
     axis 0 0 0   XYZ
    dof ry rz
    limits (-20.0 10.0)
           (0.0 20.0)
  end
  begin
     id 18 
     name lhumerus
     direction 1 -4.48964e-011 1.94005e-028   
     length 5.10995   
     axis 180 -30 -90   XYZ
    dof rx ry rz
    limits (-60.0 90.0)
           (-90.0 90.0)
           (-90.0 90.0)
  end
  begin
     id 19
     name lradius
     direction 1 -4.48976e-011 2.87852e-027   
     length 3.21207   
     axis 180 -30 -90   XYZ
    dof rx
    limits (-10.0 170.0)
  end
  begin
     id 20
     name lwrist
     direction 1 -4.48963e-011 1.9975e-027   
     length 1.60604   
     axis 2.96054e-016 90 90   XYZ
    dof ry
    limits (-180.0 0.0)
 end
  begin
     id 21 
     name lhand
     direction 1 -4.48919e-011 4.00227e-027   
     length 0.63349   
     axis -2.5488e-015 90 90   XYZ
    dof rx rz
    limits (-90.0 90.0)
           (-45.0 45.0)
  end
  begin
     id 22 
     name lfingers
     direction 1 -4.49037e-011 7.9652e-027   
     length 0.510736   
     axis -5.0975e-015 90 90   XYZ
    dof rx
    limits (0.0 90.0)
  end
  begin
     id 23
     name lthumb
     direction 0.707107 -6.34922e-011 0.707107   
     length 0.733318   
     axis -90 45 -4.48553e-014   XYZ
    dof rx rz
    limits (-45.0 45.0)
           (-45.0 45.0)
  end
  begin
     id 24 
     name rclavicle
     direction -0.940085 0.328911 -0.0897654   
     length 3.93848  
     axis 0 0 0   XYZ 
    dof ry rz
    limits (-10.0 20.0)
           (-20.0 0.0)
  end
  begin
     id 25 
     name rhumerus
     direction -1 -4.48958e-011 3.02044e-027  
     length 5.25109   
     axis 180 30 90   XYZ
    dof rx ry rz
    limits (-90.0 60.0)
           (-90.0 90.0)
           (-90.0 90.0)
  end
  begin
     id 26 
     name rradius
     direction -1 -4.4897e-011 9.78352e-028   
     length 3.28364   
     axis 180 30 90   XYZ
    dof rx
    limits (-10.0 170.0)
  end
  begin
     id 27 
     name rwrist
     direction -1 -4.48943e-011 1.99918e-027   
     length 1.64182   
     axis 2.96054e-016 -90 -90   XYZ
    dof ry
    limits (-180.0 0.0)
  end
  begin
     id 28
     name rhand
     direction -1 -4.49024e-011 3.98478e-027   
     length 0.599745   
     axis -2.5488e-015 -90 -90   XYZ
    dof rx rz
    limits (-90.0 90.0)
           (-45.0 45.0)
  end
  begin
     id 29
     name rfingers
     direction -1 -4.48914e-011 8.00621e-027   
     length 0.48353   
     axis -5.0975e-015 -90 -90   XYZ
    dof rx
    limits (0.0 90.0)
  end
  begin
     id 30
     name rthumb
     direction -0.707107 -6.34992e-011 0.707107   
     length 0.694255   
     axis -90 -45 4.48553e-014   XYZ
    dof rx rz
    limits (-45.0 45.0)
           (-45.0 45.0)
  end
:hierarchy
  begin
    root lhipjoint rhipjoint lowerback
    lhipjoint lfemur
    lfemur ltibia
    ltibia lfoot
    lfoot ltoes
    rhipjoint rfemur
    rfemur rtibia
    rtibia rfoot
    rfoot rtoes
    lowerback upperback
    upperback thorax
    thorax lowerneck lclavicle rclavicle
    lowerneck upperneck
    upperneck head
    lclavicle lhumerus
    lhumerus lradius
    lradius lwrist
    lwrist lhand lthumb
    lhand lfingers
    rclavicle rhumerus
    rhumerus rradius
    rradius rwrist
    rwrist rhand rthumb
    rhand rfingers
  end

#!OML:ASF E:\CV Data\Top Level 1\Subject 1\Session 1\player.ASF
:FULLY-SPECIFIED
:DEGREES
371
root 6.77479 16.7276 -3.64669 25.8956 -61.943 -14.4392
lowerback 27.1369 -1.22842 5.59025
upperback 7.36135 -0.102078 6.30624
thorax -6.76149 -0.343037 3.85385
lowerneck -21.1461 12.0088 -5.10939
upperneck -0.752082 17.3315 -5.17616
head 3.40506 8.2632 0.749608
rclavicle 1.98785e-014 0
rhumerus -42.8418 -32.4796 11.8972
rradius 61.7736
rwrist -32.4542
rhand -32.1226 17.4061
rfingers 7.12502
rthumb -5.36706 -12.506
lclavicle 1.98785e-014 0
lhumerus -45.952 -10.3498 16.1953
lradius 16.3229
lwrist -40.2453
lhand -8.09028 13.2005
lfingers 7.12502
lthumb 17.822 42.4038
rfemur -20.9988 -4.94831 12.9398
rtibia 42.3974
rfoot -19.7923 -20.3155
rtoes -16.6618
lfemur -62.1982 17.9562 -5.64617
ltibia 23.6237
lfoot -4.76771 21.1059
ltoes -10.87
372
root 6.73111 16.6561 -3.48037 25.9099 -61.3041 -14.2388
lowerback 27.0329 -1.41209 5.87968
upperback 7.28244 -0.249492 6.3914
thorax -6.79243 -0.413423 3.83063
lowerneck -21.0527 12.1006 -5.02393
upperneck -0.810394 17.4376 -5.35762
head 3.39276 8.3113 0.680527
rclavicle -3.33958e-014 6.04305e-014
rhumerus -41.9736 -31.4052 13.1931
rradius 63.8409
rwrist -30.9266
rhand -31.9074 18.3659
rfingers 7.12502
rthumb -5.15927 -11.5513
lclavicle -3.33958e-014 6.04305e-014
lhumerus -48.0745 -7.43833 15.9338
lradius 15.8382
lwrist -41.7032
lhand -8.47939 13.7303
lfingers 7.12502
lthumb 17.4475 42.9673
rfemur -20.9007 -4.98479 12.4961
rtibia 43.0445
rfoot -19.9745 -20.5497
rtoes -17.5985
lfemur -61.6938 18.0684 -5.24553
ltibia 23.357
lfoot -4.28008 22.0363
ltoes -10.3718
373
root 6.68635 16.5833 -3.3081 25.9623 -60.6184 -14.0901
lowerback 26.903 -1.59884 6.21302
upperback 7.18469 -0.388562 6.49329
thorax -6.83239 -0.480215 3.79826
lowerneck -20.954 12.1854 -4.94593
upperneck -0.83098 17.5376 -5.51308
head 3.39028 8.3564 0.621789
rclavicle -1.19271e-014 1.03368e-014
rhumerus -41.0282 -30.593 14.5794
rradius 65.7686
rwrist -29.3623
rhand -31.8364 19.3776
rfingers 7.12502
rthumb -5.09072 -10.5412
lclavicle -1.19271e-014 1.03368e-014
lhumerus -50.2832 -4.42346 15.4699
lradius 15.3475
lwrist -43.3548
lhand -8.82213 14.1924
lfingers 7.12502
lthumb 17.1177 43.4584
rfemur -20.7373 -5.03613 12.0771
rtibia 43.6491
rfoot -20.0926 -20.7597
rtoes -18.6044
lfemur -61.2477 18.1587 -4.86047
ltibia 23.1265
lfoot -3.6981 23.0091
ltoes -9.84844
374
root 6.64065 16.5096 -3.12915 26.0539 -59.8829 -13.9886
lowerback 26.7425 -1.78209 6.59014
upperback 7.06462 -0.511206 6.61216
thorax -6.8832 -0.53963 3.75455
lowerneck -20.8707 12.2655 -4.8521
upperneck -0.788769 17.6329 -5.64866
head 3.41335 8.39695 0.571162
rclavicle -3.73715e-014 3.33958e-014
rhumerus -40.0128 -30.0836 16.0339
rradius 67.5183
rwrist -27.6843
rhand -31.9469 20.3663
rfingers 7.12502
rthumb -5.19749 -9.54998
lclavicle -3.73715e-014 3.33958e-014
lhumerus -52.5894 -1.30854 14.7535
lradius 14.8635
lwrist -45.1938
lhand -9.03317 14.5664
lfingers 7.12502
lthumb 16.9145 43.8498
rfemur -20.5159 -5.0965 11.6793
rtibia 44.2131
rfoot -20.132 -20.9431
rtoes -19.6851
lfemur -60.8887 18.2378 -4.52399
ltibia 22.9521
lfoot -3.04587 24.0331
ltoes -9.22224
375
root 6.59452 16.4354 -2.94332 26.1682 -59.0829 -13.9089
lowerback 26.5429 -1.95572 7.02103
upperback 6.91981 -0.608124 6.74396
thorax -6.94336 -0.587323 3.6861
lowerneck -20.8106 12.3299 -4.72057
upperneck -0.675446 17.7063 -5.77857
head 3.47025 8.42281 0.520668
rclavicle 4.21423e-014 -6.36111e-014
rhumerus -38.962 -29.9151 17.5463
rradius 69.0523
rwrist -25.8776
rhand -32.2831 21.2444
rfingers 7.12502
rthumb -5.52202 -8.66369
lclavicle 4.21423e-014 -6.36111e-014
lhumerus -54.9921 1.87537 13.7719
lradius 14.4013
lwrist -47.1387
lhand -9.13197 14.8543
lfingers 7.12502
lthumb 16.8194 44.1459
rfemur -20.2426 -5.16367 11.2957
rtibia 44.7417
rfoot -20.0766 -21.1002
rtoes -20.8356
lfemur -60.6664 18.3403 -4.32113
ltibia 22.8475
lfoot -2.36104 25.0452
ltoes -8.53922
376
root 6.54804 16.3614 -2.74998 26.2651 -58.2122 -13.8071
lowerback 26.3098 -2.11307 7.47833
upperback 6.74345 -0.676012 6.89936
thorax -7.02304 -0.621815 3.62026
lowerneck -20.7706 12.3752 -4.5706
upperneck -0.493865 17.7574 -5.90303
head 3.55762 8.43397 0.472393
rclavicle -7.15625e-015 9.22361e-014
rhumerus -37.8498 -30.114 19.0976
rradius 70.3305
rwrist -24.0166
rhand -32.83 22.0208
rfingers 7.12502
rthumb -6.05013 -7.87283
lclavicle -7.15625e-015 9.22361e-014
lhumerus -57.5258 5.07771 12.5548
lradius 13.9642
lwrist -49.0753
lhand -9.17602 15.0627
lfingers 7.12502
lthumb 16.777 44.3579
rfemur -19.9111 -5.24028 10.9029
rtibia 45.2346
rfoot -19.9137 -21.2267
rtoes -22.0566
lfemur -60.6026 18.4753 -4.32307
ltibia 22.8248
lfoot -1.73391 26.0021
ltoes -7.79307
377
root 6.5005 16.2882 -2.54979 26.3354 -57.2796 -13.6823
lowerback 26.0543 -2.22969 7.93651
upperback 6.53402 -0.688658 7.08405
thorax -7.12907 -0.63082 3.57036
lowerneck -21.0404 12.3432 -4.61103
upperneck 0.258361 17.7776 -5.80179
head 3.42736 8.41531 0.439988
rclavicle -1.98785e-014 7.39479e-014
rhumerus -36.6974 -30.7041 20.6797
rradius 71.3358
rwrist -22.2212
rhand -33.5478 22.5601
rfingers 7.12502
rthumb -6.74305 -7.31257
lclavicle -1.98785e-014 7.39479e-014
lhumerus -60.1616 8.11942 11.2963
lradius 13.5703
lwrist -50.6981
lhand -9.23481 15.1774
lfingers 7.12502
lthumb 16.7204 44.4773
rfemur -19.5085 -5.29014 10.5016
rtibia 45.685
rfoot -19.6353 -21.341
rtoes -23.338
lfemur -60.6985 18.6849 -4.58209
ltibia 22.8853
lfoot -1.21878 26.8327
ltoes -7.03476
378
root 6.45129 16.2164 -2.34274 26.3595 -56.2754 -13.5232
lowerback 25.7876 -2.29038 8.38046
upperback 6.28869 -0.628173 7.30357
thorax -7.26957 -0.606067 3.54649
lowerneck -21.0275 12.3172 -4.42613
upperneck 0.590123 17.7417 -5.94459
head 3.56052 8.37365 0.388075
rclavicle -3.97569e-015 3.89618e-014
rhumerus -35.513 -31.7147 22.2917
rradius 72.041
rwrist -20.6746
rhand -34.3535 22.8684
rfingers 7.12502
rthumb -7.5208 -6.97794
lclavicle -3.97569e-015 3.89618e-014
lhumerus -62.8579 10.9708 10.0833
lradius 13.2205
lwrist -51.893
lhand -9.36243 15.2228
lfingers 7.12502
lthumb 16.5975 44.5331
rfemur -19.0066 -5.30807 10.0917
rtibia 46.0742
rfoot -19.248 -21.4355
rtoes -24.6243
lfemur -60.9604 18.9907 -5.15137
ltibia 23.0318
lfoot -0.842368 27.4328
ltoes -6.31926
379
root 6.39928 16.1463 -2.12899 26.3504 -55.183 -13.3587
lowerback 25.5055 -2.28185 8.81647
upperback 6.0143 -0.47684 7.566
thorax -7.43406 -0.539536 3.54849
lowerneck -21.0334 12.247 -4.18826
upperneck 0.986797 17.6458 -6.12903
head 3.7255 8.2957 0.316207
rclavicle 1.11319e-014 3.97569e-015
rhumerus -34.3006 -33.1715 23.9291
rradius 72.4349
rwrist -19.5406
rhand -35.179 23.0866
rfingers 7.12502
rthumb -8.31757 -6.72962
lclavicle 1.11319e-014 3.97569e-015
lhumerus -65.4788 13.5037 9.19994
lradius 12.8942
lwrist -52.3743
lhand -9.6397 15.2199
lfingers 7.12502
lthumb 16.3306 44.5523
rfemur -18.3705 -5.27577 9.70651
rtibia 46.3724
rfoot -18.7511 -21.5397
rtoes -25.9144
lfemur -61.3714 19.3715 -5.99125
ltibia 23.271
lfoot -0.614872 27.742
ltoes -5.732
380
root 6.34333 16.0779 -1.90858 26.3389 -53.9745 -13.2341
lowerback 25.2033 -2.19934 9.25233
upperback 5.7114 -0.226045 7.88954
thorax -7.61914 -0.427663 3.59031
lowerneck -21.0498 12.1368 -3.90309
upperneck 1.4283 17.4944 -6.35407
head 3.91384 8.1851 0.223664
rclavicle 4.37326e-014 3.49861e-014
rhumerus -33.0285 -35.1274 25.5687
rradius 72.5142
rwrist -18.934
rhand -35.9688 23.2704
rfingers 7.12502
rthumb -9.07968 -6.51415
lclavicle 4.37326e-014 3.49861e-014
lhumerus -67.9174 15.6719 8.90095
lradius 12.615
lwrist -51.9218
lhand -10.0769 15.2039
lfingers 7.12502
lthumb 15.9096 44.5704
rfemur -17.5642 -5.17797 9.39846
rtibia 46.5416
rfoot -18.1595 -21.6787
rtoes -27.1536
lfemur -61.9247 19.8014 -7.04724
ltibia 23.6191
lfoot -0.485027 27.6917
ltoes -5.33332
